# xmcd
#
# Track frame offsets: 
#        150
#        12184
#        23491
#        34165
#        45282
#        55757
#        67901
#        78593
#        85427
#        95952
#        104707
#        113336
#
# Disc length: 1648 seconds
#
# Revision: 0
# Processed by: cddbd v1.5.2PL0 Copyright (c) Steve Scherf et al.
# Submitted via: ExactAudioCopy v0.99pb4
#
DISCID=8d066e0c
DTITLE=Waylon Jennings - At JD's
DYEAR=1964
DGENRE=Country
TTITLE0=Crying
TTITLE1=Sally Was A Good Old Girl
TTITLE2=Burning Memories
TTITLE3=Big Mamou
TTITLE4=Money
TTITLE5=Don't Think Twice
TTITLE6=Dream Baby
TTITLE7=It's So Easy
TTITLE8=Lorena
TTITLE9=Love's Gonna Live Here
TTITLE10=Abilene
TTITLE11=White Lightnin'
EXTD=
EXTT0=
EXTT1=
EXTT2=
EXTT3=
EXTT4=
EXTT5=
EXTT6=
EXTT7=
EXTT8=
EXTT9=
EXTT10=
EXTT11=
PLAYORDER=
